HIERARCHY
ROOT Hips
{
  OFFSET 54.5129 85.9637 50.2761
  CHANNELS 6 Xposition Yposition Zposition Zrotation Xrotation Yrotation
  JOINT spine
  {
    OFFSET 0 6.3926 0.367606
    CHANNELS 3 Zrotation Xrotation Yrotation
    JOINT spine1
    {
      OFFSET 0 9.17611 0
      CHANNELS 3 Zrotation Xrotation Yrotation
      JOINT spine2
      {
        OFFSET 0 8.79238 0
        CHANNELS 3 Zrotation Xrotation Yrotation
        JOINT Neck
        {
          OFFSET 0 22.5737 1.07624
          CHANNELS 3 Zrotation Xrotation Yrotation
          JOINT Head
          {
            OFFSET 0 6.82011 0
            CHANNELS 3 Zrotation Xrotation Yrotation
            End Site
            {
              OFFSET 0 16.5085 -5.44427
            }
          }
        }
        JOINT RightShoulder
        {
          OFFSET -3.70221 9.49509 -0.515508
          CHANNELS 3 Zrotation Xrotation Yrotation
          JOINT RightArm
          {
            OFFSET 0 12.4537 0
            CHANNELS 3 Zrotation Xrotation Yrotation
            JOINT RightArmRoll
            {
              OFFSET 0 6.28686 0
              CHANNELS 3 Zrotation Xrotation Yrotation
              JOINT RightForeArm
              {
                OFFSET 0 18.3114 0
                CHANNELS 3 Zrotation Xrotation Yrotation
                JOINT RightForeArmRoll
                {
                  OFFSET 0 7.05482 0
                  CHANNELS 3 Zrotation Xrotation Yrotation
                  JOINT RightHand
                  {
                    OFFSET 0 14.1575 0
                    CHANNELS 3 Zrotation Xrotation Yrotation
                    End Site
                    {
                      OFFSET 0 0 0
                    }
                  }
                }
              }
            }
          }
        }
        JOINT LeftShoulder
        {
          OFFSET 3.70221 9.49509 -0.515508
          CHANNELS 3 Zrotation Xrotation Yrotation
          JOINT LeftArm
          {
            OFFSET 0 12.4537 0
            CHANNELS 3 Zrotation Xrotation Yrotation
            JOINT LeftArmRoll
            {
              OFFSET 0 6.28686 0
              CHANNELS 3 Zrotation Xrotation Yrotation
              JOINT LeftForeArm
              {
                OFFSET 0 18.3114 0
                CHANNELS 3 Zrotation Xrotation Yrotation
                JOINT LeftForeArmRoll
                {
                  OFFSET 0 7.05482 0
                  CHANNELS 3 Zrotation Xrotation Yrotation
                  JOINT LeftHand
                  {
                    OFFSET 0 14.1575 0
                    CHANNELS 3 Zrotation Xrotation Yrotation
                    End Site
                    {
                      OFFSET 0 0 0
                    }
                  }
                }
              }
            }
          }
        }
      }
    }
  }
  JOINT RightUpLeg
  {
    OFFSET -5.66616 -1.03903 -0.87161
    CHANNELS 3 Zrotation Xrotation Yrotation
    JOINT RightUpLegRoll
    {
      OFFSET 0 16.6005 0
      CHANNELS 3 Zrotation Xrotation Yrotation
      JOINT RightLeg
      {
        OFFSET 0 -20.5572 0
        CHANNELS 3 Zrotation Xrotation Yrotation
        JOINT RightLegRoll
        {
          OFFSET 0 20.6244 0
          CHANNELS 3 Zrotation Xrotation Yrotation
          JOINT RightFoot
          {
            OFFSET 0 17.1664 0
            CHANNELS 3 Zrotation Xrotation Yrotation
            JOINT RightToeBase
            {
              OFFSET 0 14.3502 0
              CHANNELS 3 Zrotation Xrotation Yrotation
              End Site
              {
                OFFSET 0.00608252 6.9497 -0.801061
              }
            }
          }
        }
      }
    }
  }
  JOINT LeftUpLeg
  {
    OFFSET 5.66616 -1.03903 -0.87161
    CHANNELS 3 Zrotation Xrotation Yrotation
    JOINT LeftUpLegRoll
    {
      OFFSET 0 16.6006 0
      CHANNELS 3 Zrotation Xrotation Yrotation
      JOINT LeftLeg
      {
        OFFSET 0 20.5571 0
        CHANNELS 3 Zrotation Xrotation Yrotation
        JOINT LeftLegRoll
        {
          OFFSET 0 20.8151 0
          CHANNELS 3 Zrotation Xrotation Yrotation
          JOINT LeftFoot
          {
            OFFSET 0 16.9757 0
            CHANNELS 3 Zrotation Xrotation Yrotation
            JOINT LeftToeBase
            {
              OFFSET 0 14.3502 0
              CHANNELS 3 Zrotation Xrotation Yrotation
              End Site
              {
                OFFSET -0.0272592 6.9497 -0.801061
              }
            }
          }
        }
      }
    }
  }
}
MOTION
Frames: 8
Frame Time: 0.00208333
52.8635 75.9902 32.58 0.96451 23.1165 2.17592 -0.573082 -0.0726878 -0.163655 -1.15511 3.85844 -0.253018 -1.15377 5.50333 -0.233873 2.78123 -9.43348 -0.0754833 -0.701347 -0.350652 0.214161 55.3913 3.37472 2.69051 116.592 30.4778 -19.5296 -1.07286e-006 -7.0695e-010 -2.24599e-006 17.9107 29.1315 -4.93411 -4.00533e-006 1.17358e-005 -2.99999 8.02884 -4.95131 0.697532 -50.9735 -0.365325 -0.792526 -120.951 30.0646 22.0671 5.45675e-006 -1.9761e-007 4.85759e-006 -15.1878 27.1208 4.74844 -1.556e-006 -8.11163e-006 3 -8.02892 -4.95099 -0.697421 171.54 62.8866 5.49921 180 7.01623e-015 179.327 176.643 50.5218 179.767 -3.08558e-007 2.84348e-007 0.826307 -23.8093 73.2264 25.1883 8.13902 25.3791 -3.28318 -176.342 62.0127 0.661023 4.5067e-006 -1.99009e-005 -0.760532 -0.508806 -52.8776 0.881098 2.21058e-006 -1.62703e-006 -1.3962 28.3394 75.9614 -29.9359 -8.15986 25.5764 3.03418 
52.8866 76.0424 32.6947 0.965793 23.005 2.18395 -0.571708 -0.0903933 -0.157422 -1.15254 3.82296 -0.240899 -1.15133 5.46785 -0.221784 2.79638 -9.38701 -0.085779 -0.709485 -0.286445 0.20657 55.4477 3.3352 2.65481 116.55 30.4743 -19.3819 -1.07286e-006 -7.06945e-010 -2.24599e-006 17.9089 28.8015 -4.8742 -4.00533e-006 1.17358e-005 -2.99999 8.02884 -4.95131 0.697532 -51.003 -0.32764 -0.815733 -120.921 30.0428 21.9081 5.45675e-006 -1.9761e-007 4.85759e-006 -15.1276 26.8882 4.69093 -1.556e-006 -8.11163e-006 3 -8.02892 -4.95099 -0.697421 171.624 62.6058 5.38032 180 7.01622e-015 179.326 176.706 50.4039 179.737 -3.08558e-007 2.84348e-007 0.825401 -23.8089 73.2519 25.2186 8.13968 25.3893 -3.26906 -176.401 61.7154 0.726957 4.5067e-006 -1.99009e-005 -0.762042 -0.501845 -52.7185 0.879347 2.21058e-006 -1.62703e-006 -1.39398 28.3641 75.9754 -29.964 -8.16019 25.5812 3.02785 
52.8957 76.1387 32.8001 0.965978 22.8892 2.19391 -0.570227 -0.107194 -0.152019 -1.14959 3.78931 -0.230453 -1.14848 5.4342 -0.211377 2.81041 -9.33739 -0.0950966 -0.716293 -0.225866 0.200006 55.5043 3.29867 2.6211 116.505 30.4695 -19.2337 -1.07286e-006 -7.06946e-010 -2.24599e-006 17.9077 28.4768 -4.81576 -4.00533e-006 1.17358e-005 -2.99999 8.02884 -4.95131 0.697532 -51.0331 -0.296382 -0.834246 -120.888 30.0192 21.7556 5.45675e-006 -1.9761e-007 4.85759e-006 -15.0744 26.6626 4.63659 -1.556e-006 -8.11163e-006 3 -8.02892 -4.95099 -0.697421 171.705 62.3182 5.26791 180 7.01622e-015 179.325 176.76 50.2824 179.711 -3.08558e-007 2.84348e-007 0.824338 -23.8163 73.2791 25.2528 8.14026 25.3982 -3.25667 -176.46 61.414 0.792755 4.5067e-006 -1.99009e-005 -0.763622 -0.493327 -52.5601 0.878628 2.21058e-006 -1.62703e-006 -1.39171 28.3896 75.9895 -29.9928 -8.16052 25.586 3.02148 
52.9066 76.2271 32.9056 0.964887 22.7684 2.20607 -0.568614 -0.122925 -0.147572 -1.14617 3.7578 -0.221934 -1.14516 5.40269 -0.202907 2.82327 -9.28425 -0.103301 -0.721685 -0.169723 0.194605 55.5613 3.26578 2.5898 116.457 30.4637 -19.0849 -1.07286e-006 -7.06944e-010 -2.24599e-006 17.9072 28.1573 -4.75883 -4.00533e-006 1.17358e-005 -2.99999 8.02884 -4.95131 0.697532 -51.0638 -0.272399 -0.847459 -120.853 29.994 21.6105 5.45675e-006 -1.9761e-007 4.85759e-006 -15.0292 26.4437 4.58548 -1.556e-006 -8.11163e-006 3 -8.02892 -4.95099 -0.697421 171.785 62.0226 5.16255 180 7.01622e-015 179.324 176.804 50.1569 179.689 -3.08558e-007 2.84348e-007 0.823094 -23.833 73.3087 25.2915 8.14074 25.4057 -3.24633 -176.519 61.1081 0.858432 4.5067e-006 -1.99009e-005 -0.765283 -0.483046 -52.4026 0.87908 2.21058e-006 -1.62703e-006 -1.38939 28.416 76.0039 -30.0225 -8.16085 25.5909 3.01505 
52.9121 76.2741 33.0228 0.962619 22.6425 2.22048 -0.566903 -0.13763 -0.144032 -1.1423 3.72835 -0.215246 -1.14135 5.37324 -0.196278 2.8345 -9.22873 -0.110388 -0.725082 -0.11599 0.190356 55.6188 3.23602 2.56052 116.405 30.4561 -18.9361 -1.07286e-006 -7.06951e-010 -2.24599e-006 17.9071 27.8442 -4.70327 -4.00533e-006 1.17358e-005 -2.99999 8.02884 -4.95131 0.697532 -51.0953 -0.255198 -0.855669 -120.814 29.9664 21.4712 5.45675e-006 -1.9761e-007 4.85759e-006 -14.99 26.2348 4.53797 -1.556e-006 -8.11163e-006 3 -8.02892 -4.95099 -0.697421 171.862 61.7194 5.06366 180 7.01622e-015 179.322 176.839 50.0277 179.673 -3.08558e-007 2.84348e-007 0.821691 -23.8583 73.3403 25.3346 8.14113 25.4119 -3.23784 -176.579 60.7975 0.924852 4.5067e-006 -1.99009e-005 -0.767036 -0.470703 -52.2461 0.880834 2.21058e-006 -1.62703e-006 -1.38702 28.4434 76.0186 -30.0531 -8.16119 25.5958 3.00857 
52.9237 76.3786 33.134 0.959472 22.5126 2.23686 -0.565145 -0.151531 -0.141221 -1.13805 3.70052 -0.210022 -1.13714 5.34542 -0.191122 2.84383 -9.17207 -0.116509 -0.726158 -0.0622515 0.187091 55.6771 3.20825 2.53245 116.35 30.446 -18.7886 -1.07286e-006 -7.0695e-010 -2.24599e-006 17.9073 27.5382 -4.64886 -4.00533e-006 1.17358e-005 -2.99999 8.02884 -4.95131 0.697532 -51.128 -0.243442 -0.859793 -120.771 29.9354 21.3353 5.45675e-006 -1.9761e-007 4.85759e-006 -14.9543 26.0391 4.49422 -1.556e-006 -8.11163e-006 3 -8.02892 -4.95099 -0.697421 171.938 61.41 4.97005 180 7.01622e-015 179.321 176.867 49.8954 179.66 -3.08558e-007 2.84348e-007 0.820176 -23.8901 73.3732 25.3805 8.14146 25.417 -3.23069 -176.639 60.4831 0.992585 4.5067e-006 -1.99009e-005 -0.768871 -0.456334 -52.09 0.883812 2.21058e-006 -1.62703e-006 -1.38459 28.4713 76.0334 -30.0842 -8.16153 25.6008 3.00203 
52.9314 76.3987 33.2562 0.955569 22.3791 2.255 -0.563348 -0.16473 -0.139064 -1.13347 3.6741 -0.206114 -1.13259 5.319 -0.18729 2.85148 -9.11408 -0.121767 -0.725215 -0.00872319 0.184714 55.7362 3.1822 2.50541 116.291 30.4334 -18.6422 -1.07285e-006 -7.06932e-010 -2.24599e-006 17.9075 27.239 -4.59555 -4.00533e-006 1.17358e-005 -2.99999 8.02884 -4.95131 0.697532 -51.1617 -0.236707 -0.860156 -120.724 29.9013 21.2028 5.45675e-006 -1.9761e-007 4.85759e-006 -14.922 25.8556 4.45395 -1.556e-006 -8.11163e-006 3 -8.02892 -4.95099 -0.697421 172.011 61.0951 4.88131 180 7.01621e-015 179.319 176.889 49.7602 179.649 -3.08558e-007 2.84348e-007 0.818558 -23.9276 73.4071 25.429 8.14174 25.4213 -3.22474 -176.701 60.1653 1.06121 4.5067e-006 -1.99009e-005 -0.770775 -0.440242 -51.9341 0.887835 2.21058e-006 -1.62703e-006 -1.38211 28.4994 76.0481 -30.1153 -8.16187 25.6057 2.99547 
52.9404 76.5079 33.3711 0.951034 22.2426 2.27465 -0.561517 -0.177331 -0.137488 -1.12862 3.64889 -0.203373 -1.12776 5.29378 -0.184631 2.85768 -9.0546 -0.126262 -0.722554 0.044377 0.183128 55.7959 3.15761 2.47926 116.23 30.4184 -18.4968 -1.07286e-006 -7.06949e-010 -2.24599e-006 17.9079 26.9464 -4.54331 -4.00533e-006 1.17358e-005 -2.99999 8.02884 -4.95131 0.697532 -51.1962 -0.234571 -0.857082 -120.673 29.8641 21.0739 5.45675e-006 -1.9761e-007 4.85759e-006 -14.8933 25.6832 4.41688 -1.556e-006 -8.11163e-006 3 -8.02892 -4.95099 -0.697421 172.084 60.7753 4.79707 180 7.01621e-015 179.318 176.906 49.6222 179.642 -3.08558e-007 2.84348e-007 0.816847 -23.97 73.4418 25.4795 8.14197 25.4248 -3.21984 -176.762 59.8446 1.13033 4.5067e-006 -1.99009e-005 -0.772736 -0.422726 -51.7782 0.892726 2.21058e-006 -1.62703e-006 -1.37957 28.5276 76.0627 -30.1465 -8.16222 25.6107 2.9889 
